<mxfile host="app.diagrams.net" modified="2024-05-20T15:04:38.056Z" agent="Mozilla/5.0 (Windows NT 10.0; Win64; x64) AppleWebKit/537.36 (KHTML, like Gecko) Chrome/124.0.0.0 Safari/537.36" etag="Ry5XWEtfraVaHIxScYJV" version="24.4.4" type="github">
  <diagram name="Page-1" id="rI2kh3Gkg-3g-Ctt-gzb">
    <mxGraphModel dx="3514" dy="953" grid="1" gridSize="10" guides="1" tooltips="1" connect="1" arrows="1" fold="1" page="1" pageScale="1" pageWidth="827" pageHeight="1169" math="0" shadow="0">
      <root>
        <mxCell id="0" />
        <mxCell id="1" parent="0" />
        <mxCell id="mPE-RRajF-i85CnaDNLj-49" value="" style="shape=parallelogram;perimeter=parallelogramPerimeter;whiteSpace=wrap;html=1;fixedSize=1;" vertex="1" parent="1">
          <mxGeometry x="-1215" y="946" width="420" height="180" as="geometry" />
        </mxCell>
        <mxCell id="mPE-RRajF-i85CnaDNLj-14" style="edgeStyle=orthogonalEdgeStyle;rounded=0;orthogonalLoop=1;jettySize=auto;html=1;exitX=1;exitY=0.5;exitDx=0;exitDy=0;entryX=0;entryY=0.5;entryDx=0;entryDy=0;" edge="1" parent="1" source="mPE-RRajF-i85CnaDNLj-1" target="mPE-RRajF-i85CnaDNLj-12">
          <mxGeometry relative="1" as="geometry" />
        </mxCell>
        <mxCell id="mPE-RRajF-i85CnaDNLj-1" value="Request" style="triangle;whiteSpace=wrap;html=1;" vertex="1" parent="1">
          <mxGeometry x="-1540" y="140" width="120" height="80" as="geometry" />
        </mxCell>
        <mxCell id="mPE-RRajF-i85CnaDNLj-5" value="&lt;h1 style=&quot;margin-top: 0px;&quot;&gt;Option 1: Two tables&lt;/h1&gt;" style="text;html=1;whiteSpace=wrap;overflow=hidden;rounded=0;" vertex="1" parent="1">
          <mxGeometry x="-1580" y="30" width="270" height="120" as="geometry" />
        </mxCell>
        <mxCell id="mPE-RRajF-i85CnaDNLj-18" style="edgeStyle=orthogonalEdgeStyle;rounded=0;orthogonalLoop=1;jettySize=auto;html=1;exitX=0.25;exitY=1;exitDx=0;exitDy=0;" edge="1" parent="1" source="mPE-RRajF-i85CnaDNLj-6" target="mPE-RRajF-i85CnaDNLj-7">
          <mxGeometry relative="1" as="geometry" />
        </mxCell>
        <mxCell id="mPE-RRajF-i85CnaDNLj-6" value="Ops Table" style="rounded=0;whiteSpace=wrap;html=1;" vertex="1" parent="1">
          <mxGeometry x="-1150" y="150" width="120" height="60" as="geometry" />
        </mxCell>
        <mxCell id="mPE-RRajF-i85CnaDNLj-7" value="Maxar API" style="ellipse;whiteSpace=wrap;html=1;aspect=fixed;" vertex="1" parent="1">
          <mxGeometry x="-1160" y="455" width="80" height="80" as="geometry" />
        </mxCell>
        <mxCell id="mPE-RRajF-i85CnaDNLj-10" value="" style="endArrow=classic;html=1;rounded=0;" edge="1" parent="1">
          <mxGeometry width="50" height="50" relative="1" as="geometry">
            <mxPoint x="-890" y="90" as="sourcePoint" />
            <mxPoint x="-890" y="540" as="targetPoint" />
          </mxGeometry>
        </mxCell>
        <mxCell id="mPE-RRajF-i85CnaDNLj-11" value="Latency" style="text;html=1;align=center;verticalAlign=middle;resizable=0;points=[];autosize=1;strokeColor=none;fillColor=none;" vertex="1" parent="1">
          <mxGeometry x="-890" y="290" width="70" height="30" as="geometry" />
        </mxCell>
        <mxCell id="mPE-RRajF-i85CnaDNLj-15" style="edgeStyle=orthogonalEdgeStyle;rounded=0;orthogonalLoop=1;jettySize=auto;html=1;exitX=1;exitY=0.5;exitDx=0;exitDy=0;entryX=0;entryY=0.5;entryDx=0;entryDy=0;" edge="1" parent="1" source="mPE-RRajF-i85CnaDNLj-12" target="mPE-RRajF-i85CnaDNLj-6">
          <mxGeometry relative="1" as="geometry" />
        </mxCell>
        <mxCell id="mPE-RRajF-i85CnaDNLj-12" value="Ops Web App" style="rounded=0;whiteSpace=wrap;html=1;" vertex="1" parent="1">
          <mxGeometry x="-1340" y="150" width="120" height="60" as="geometry" />
        </mxCell>
        <mxCell id="mPE-RRajF-i85CnaDNLj-13" value="Geo Internal Web app" style="swimlane;whiteSpace=wrap;html=1;" vertex="1" parent="1">
          <mxGeometry x="-1090" y="290" width="170" height="132" as="geometry" />
        </mxCell>
        <mxCell id="mPE-RRajF-i85CnaDNLj-2" value="Geo Internal Table" style="rounded=0;whiteSpace=wrap;html=1;" vertex="1" parent="mPE-RRajF-i85CnaDNLj-13">
          <mxGeometry x="30" y="50" width="120" height="60" as="geometry" />
        </mxCell>
        <mxCell id="mPE-RRajF-i85CnaDNLj-16" style="edgeStyle=orthogonalEdgeStyle;rounded=0;orthogonalLoop=1;jettySize=auto;html=1;exitX=0.75;exitY=1;exitDx=0;exitDy=0;entryX=0.655;entryY=0.015;entryDx=0;entryDy=0;entryPerimeter=0;" edge="1" parent="1" source="mPE-RRajF-i85CnaDNLj-6" target="mPE-RRajF-i85CnaDNLj-13">
          <mxGeometry relative="1" as="geometry" />
        </mxCell>
        <mxCell id="mPE-RRajF-i85CnaDNLj-17" style="edgeStyle=orthogonalEdgeStyle;rounded=0;orthogonalLoop=1;jettySize=auto;html=1;exitX=0.5;exitY=0;exitDx=0;exitDy=0;entryX=0.575;entryY=1.033;entryDx=0;entryDy=0;entryPerimeter=0;" edge="1" parent="1" source="mPE-RRajF-i85CnaDNLj-13" target="mPE-RRajF-i85CnaDNLj-6">
          <mxGeometry relative="1" as="geometry" />
        </mxCell>
        <mxCell id="mPE-RRajF-i85CnaDNLj-19" style="edgeStyle=orthogonalEdgeStyle;rounded=0;orthogonalLoop=1;jettySize=auto;html=1;exitX=0;exitY=0.5;exitDx=0;exitDy=0;entryX=0.108;entryY=1.033;entryDx=0;entryDy=0;entryPerimeter=0;" edge="1" parent="1" source="mPE-RRajF-i85CnaDNLj-7" target="mPE-RRajF-i85CnaDNLj-6">
          <mxGeometry relative="1" as="geometry" />
        </mxCell>
        <mxCell id="mPE-RRajF-i85CnaDNLj-20" value="&lt;font style=&quot;font-size: 18px;&quot;&gt;1. But then do we write to both Tables as well?&lt;/font&gt;&lt;div&gt;&lt;font style=&quot;font-size: 18px;&quot;&gt;2. This is not a cache exactly. How much will this table increase?&lt;/font&gt;&lt;/div&gt;&lt;div style=&quot;&quot;&gt;&lt;font style=&quot;font-size: 18px;&quot;&gt;3. Data from Internal should be inserted into Ops Table first&lt;/font&gt;&lt;/div&gt;" style="text;html=1;align=left;verticalAlign=middle;resizable=0;points=[];autosize=1;strokeColor=none;fillColor=none;" vertex="1" parent="1">
          <mxGeometry x="-805" y="30" width="540" height="80" as="geometry" />
        </mxCell>
        <mxCell id="mPE-RRajF-i85CnaDNLj-21" value="Pros: No single point of failure, no need to rely only on Geo Internal" style="text;html=1;align=center;verticalAlign=middle;resizable=0;points=[];autosize=1;strokeColor=none;fillColor=none;" vertex="1" parent="1">
          <mxGeometry x="-725" y="150" width="380" height="30" as="geometry" />
        </mxCell>
        <mxCell id="mPE-RRajF-i85CnaDNLj-22" value="Cons: Latency, Coupling between apps, complexity, data redundancy" style="text;html=1;align=center;verticalAlign=middle;resizable=0;points=[];autosize=1;strokeColor=none;fillColor=none;" vertex="1" parent="1">
          <mxGeometry x="-725" y="250" width="390" height="30" as="geometry" />
        </mxCell>
        <mxCell id="mPE-RRajF-i85CnaDNLj-24" value="Option 2: Centralized with Maxar request in Ops portal" style="text;html=1;align=center;verticalAlign=middle;resizable=0;points=[];autosize=1;strokeColor=none;fillColor=none;" vertex="1" parent="1">
          <mxGeometry x="-1640" y="710" width="310" height="30" as="geometry" />
        </mxCell>
        <mxCell id="mPE-RRajF-i85CnaDNLj-37" style="edgeStyle=orthogonalEdgeStyle;rounded=0;orthogonalLoop=1;jettySize=auto;html=1;exitX=1;exitY=0.5;exitDx=0;exitDy=0;entryX=0;entryY=0.5;entryDx=0;entryDy=0;" edge="1" parent="1" source="mPE-RRajF-i85CnaDNLj-38" target="mPE-RRajF-i85CnaDNLj-43">
          <mxGeometry relative="1" as="geometry" />
        </mxCell>
        <mxCell id="mPE-RRajF-i85CnaDNLj-38" value="Request" style="triangle;whiteSpace=wrap;html=1;" vertex="1" parent="1">
          <mxGeometry x="-1520" y="780" width="120" height="80" as="geometry" />
        </mxCell>
        <mxCell id="mPE-RRajF-i85CnaDNLj-39" style="edgeStyle=orthogonalEdgeStyle;rounded=0;orthogonalLoop=1;jettySize=auto;html=1;exitX=0.25;exitY=1;exitDx=0;exitDy=0;" edge="1" parent="1" source="mPE-RRajF-i85CnaDNLj-40" target="mPE-RRajF-i85CnaDNLj-41">
          <mxGeometry relative="1" as="geometry" />
        </mxCell>
        <mxCell id="mPE-RRajF-i85CnaDNLj-40" value="Ops Table" style="rounded=0;whiteSpace=wrap;html=1;" vertex="1" parent="1">
          <mxGeometry x="-1130" y="790" width="120" height="60" as="geometry" />
        </mxCell>
        <mxCell id="mPE-RRajF-i85CnaDNLj-41" value="Maxar API" style="ellipse;whiteSpace=wrap;html=1;aspect=fixed;" vertex="1" parent="1">
          <mxGeometry x="-1140" y="1010" width="80" height="80" as="geometry" />
        </mxCell>
        <mxCell id="mPE-RRajF-i85CnaDNLj-42" style="edgeStyle=orthogonalEdgeStyle;rounded=0;orthogonalLoop=1;jettySize=auto;html=1;exitX=1;exitY=0.5;exitDx=0;exitDy=0;entryX=0;entryY=0.5;entryDx=0;entryDy=0;" edge="1" parent="1" source="mPE-RRajF-i85CnaDNLj-43" target="mPE-RRajF-i85CnaDNLj-40">
          <mxGeometry relative="1" as="geometry" />
        </mxCell>
        <mxCell id="mPE-RRajF-i85CnaDNLj-43" value="Ops Web App" style="rounded=0;whiteSpace=wrap;html=1;" vertex="1" parent="1">
          <mxGeometry x="-1320" y="790" width="120" height="60" as="geometry" />
        </mxCell>
        <mxCell id="mPE-RRajF-i85CnaDNLj-44" value="Geo Internal Web app" style="swimlane;whiteSpace=wrap;html=1;" vertex="1" parent="1">
          <mxGeometry x="-1020" y="970" width="170" height="132" as="geometry" />
        </mxCell>
        <mxCell id="mPE-RRajF-i85CnaDNLj-45" value="Geo Internal Table" style="rounded=0;whiteSpace=wrap;html=1;" vertex="1" parent="mPE-RRajF-i85CnaDNLj-44">
          <mxGeometry x="30" y="50" width="120" height="60" as="geometry" />
        </mxCell>
        <mxCell id="mPE-RRajF-i85CnaDNLj-46" style="edgeStyle=orthogonalEdgeStyle;rounded=0;orthogonalLoop=1;jettySize=auto;html=1;exitX=0.75;exitY=1;exitDx=0;exitDy=0;entryX=0.655;entryY=0.015;entryDx=0;entryDy=0;entryPerimeter=0;" edge="1" parent="1" source="mPE-RRajF-i85CnaDNLj-40" target="mPE-RRajF-i85CnaDNLj-44">
          <mxGeometry relative="1" as="geometry" />
        </mxCell>
        <mxCell id="mPE-RRajF-i85CnaDNLj-47" style="edgeStyle=orthogonalEdgeStyle;rounded=0;orthogonalLoop=1;jettySize=auto;html=1;exitX=0.5;exitY=0;exitDx=0;exitDy=0;entryX=0.575;entryY=1.033;entryDx=0;entryDy=0;entryPerimeter=0;" edge="1" parent="1" source="mPE-RRajF-i85CnaDNLj-44" target="mPE-RRajF-i85CnaDNLj-40">
          <mxGeometry relative="1" as="geometry" />
        </mxCell>
        <mxCell id="mPE-RRajF-i85CnaDNLj-48" style="edgeStyle=orthogonalEdgeStyle;rounded=0;orthogonalLoop=1;jettySize=auto;html=1;exitX=0;exitY=0.5;exitDx=0;exitDy=0;entryX=0.108;entryY=1.033;entryDx=0;entryDy=0;entryPerimeter=0;" edge="1" parent="1" source="mPE-RRajF-i85CnaDNLj-41" target="mPE-RRajF-i85CnaDNLj-40">
          <mxGeometry relative="1" as="geometry" />
        </mxCell>
        <mxCell id="mPE-RRajF-i85CnaDNLj-50" value="Pros: Single point of truth, reduced complexity, less coupling&lt;div&gt;Cons: single point of failure, maybe bottleneck if internal db is stuck&lt;/div&gt;" style="text;html=1;align=center;verticalAlign=middle;resizable=0;points=[];autosize=1;strokeColor=none;fillColor=none;" vertex="1" parent="1">
          <mxGeometry x="-1000" y="753" width="380" height="40" as="geometry" />
        </mxCell>
        <mxCell id="mPE-RRajF-i85CnaDNLj-52" value="Option 3: Centralized with Maxar request in Geo Internal" style="text;html=1;align=center;verticalAlign=middle;resizable=0;points=[];autosize=1;strokeColor=none;fillColor=none;" vertex="1" parent="1">
          <mxGeometry x="-465" y="720" width="320" height="30" as="geometry" />
        </mxCell>
        <mxCell id="mPE-RRajF-i85CnaDNLj-53" style="edgeStyle=orthogonalEdgeStyle;rounded=0;orthogonalLoop=1;jettySize=auto;html=1;exitX=1;exitY=0.5;exitDx=0;exitDy=0;entryX=0;entryY=0.5;entryDx=0;entryDy=0;" edge="1" parent="1" source="mPE-RRajF-i85CnaDNLj-54" target="mPE-RRajF-i85CnaDNLj-59">
          <mxGeometry relative="1" as="geometry" />
        </mxCell>
        <mxCell id="mPE-RRajF-i85CnaDNLj-54" value="Request" style="triangle;whiteSpace=wrap;html=1;" vertex="1" parent="1">
          <mxGeometry x="-340" y="790" width="120" height="80" as="geometry" />
        </mxCell>
        <mxCell id="mPE-RRajF-i85CnaDNLj-56" value="Backend" style="rounded=0;whiteSpace=wrap;html=1;" vertex="1" parent="1">
          <mxGeometry x="50" y="800" width="120" height="60" as="geometry" />
        </mxCell>
        <mxCell id="mPE-RRajF-i85CnaDNLj-67" style="edgeStyle=orthogonalEdgeStyle;rounded=0;orthogonalLoop=1;jettySize=auto;html=1;exitX=0;exitY=0.5;exitDx=0;exitDy=0;entryX=1;entryY=0.75;entryDx=0;entryDy=0;" edge="1" parent="1" source="mPE-RRajF-i85CnaDNLj-57" target="mPE-RRajF-i85CnaDNLj-60">
          <mxGeometry relative="1" as="geometry" />
        </mxCell>
        <mxCell id="mPE-RRajF-i85CnaDNLj-57" value="Maxar API" style="ellipse;whiteSpace=wrap;html=1;aspect=fixed;" vertex="1" parent="1">
          <mxGeometry x="550" y="1070" width="80" height="80" as="geometry" />
        </mxCell>
        <mxCell id="mPE-RRajF-i85CnaDNLj-58" style="edgeStyle=orthogonalEdgeStyle;rounded=0;orthogonalLoop=1;jettySize=auto;html=1;exitX=1;exitY=0.5;exitDx=0;exitDy=0;entryX=0;entryY=0.5;entryDx=0;entryDy=0;" edge="1" parent="1" source="mPE-RRajF-i85CnaDNLj-59" target="mPE-RRajF-i85CnaDNLj-56">
          <mxGeometry relative="1" as="geometry" />
        </mxCell>
        <mxCell id="mPE-RRajF-i85CnaDNLj-59" value="Ops Web App" style="rounded=0;whiteSpace=wrap;html=1;" vertex="1" parent="1">
          <mxGeometry x="-140" y="800" width="120" height="60" as="geometry" />
        </mxCell>
        <mxCell id="mPE-RRajF-i85CnaDNLj-66" style="edgeStyle=orthogonalEdgeStyle;rounded=0;orthogonalLoop=1;jettySize=auto;html=1;exitX=1;exitY=0.5;exitDx=0;exitDy=0;entryX=0.5;entryY=0;entryDx=0;entryDy=0;" edge="1" parent="1" source="mPE-RRajF-i85CnaDNLj-60" target="mPE-RRajF-i85CnaDNLj-57">
          <mxGeometry relative="1" as="geometry" />
        </mxCell>
        <mxCell id="mPE-RRajF-i85CnaDNLj-60" value="Geo Internal Web app" style="swimlane;whiteSpace=wrap;html=1;" vertex="1" parent="1">
          <mxGeometry x="160" y="980" width="170" height="132" as="geometry" />
        </mxCell>
        <mxCell id="mPE-RRajF-i85CnaDNLj-61" value="Geo Internal Table" style="rounded=0;whiteSpace=wrap;html=1;" vertex="1" parent="mPE-RRajF-i85CnaDNLj-60">
          <mxGeometry x="30" y="50" width="120" height="60" as="geometry" />
        </mxCell>
        <mxCell id="mPE-RRajF-i85CnaDNLj-62" style="edgeStyle=orthogonalEdgeStyle;rounded=0;orthogonalLoop=1;jettySize=auto;html=1;exitX=0.75;exitY=1;exitDx=0;exitDy=0;entryX=0.655;entryY=0.015;entryDx=0;entryDy=0;entryPerimeter=0;" edge="1" parent="1" source="mPE-RRajF-i85CnaDNLj-56" target="mPE-RRajF-i85CnaDNLj-60">
          <mxGeometry relative="1" as="geometry" />
        </mxCell>
        <mxCell id="mPE-RRajF-i85CnaDNLj-63" style="edgeStyle=orthogonalEdgeStyle;rounded=0;orthogonalLoop=1;jettySize=auto;html=1;exitX=0.5;exitY=0;exitDx=0;exitDy=0;entryX=0.575;entryY=1.033;entryDx=0;entryDy=0;entryPerimeter=0;" edge="1" parent="1" source="mPE-RRajF-i85CnaDNLj-60" target="mPE-RRajF-i85CnaDNLj-56">
          <mxGeometry relative="1" as="geometry" />
        </mxCell>
        <mxCell id="mPE-RRajF-i85CnaDNLj-65" value="Pros: Single point of truth, reduced complexity&lt;div&gt;&lt;span style=&quot;background-color: initial;&quot;&gt;Cons: single point of failure&lt;/span&gt;&lt;/div&gt;" style="text;html=1;align=center;verticalAlign=middle;resizable=0;points=[];autosize=1;strokeColor=none;fillColor=none;" vertex="1" parent="1">
          <mxGeometry x="225" y="570" width="270" height="40" as="geometry" />
        </mxCell>
        <mxCell id="mPE-RRajF-i85CnaDNLj-68" value="" style="endArrow=none;dashed=1;html=1;dashPattern=1 3;strokeWidth=2;rounded=0;" edge="1" parent="1">
          <mxGeometry width="50" height="50" relative="1" as="geometry">
            <mxPoint y="1040" as="sourcePoint" />
            <mxPoint x="290" y="820" as="targetPoint" />
          </mxGeometry>
        </mxCell>
        <mxCell id="mPE-RRajF-i85CnaDNLj-69" style="edgeStyle=orthogonalEdgeStyle;rounded=0;orthogonalLoop=1;jettySize=auto;html=1;exitX=1;exitY=0.5;exitDx=0;exitDy=0;entryX=0;entryY=0.5;entryDx=0;entryDy=0;" edge="1" parent="1" source="mPE-RRajF-i85CnaDNLj-70" target="mPE-RRajF-i85CnaDNLj-76">
          <mxGeometry relative="1" as="geometry" />
        </mxCell>
        <mxCell id="mPE-RRajF-i85CnaDNLj-70" value="Request" style="triangle;whiteSpace=wrap;html=1;" vertex="1" parent="1">
          <mxGeometry y="150" width="120" height="80" as="geometry" />
        </mxCell>
        <mxCell id="mPE-RRajF-i85CnaDNLj-71" value="&lt;h1 style=&quot;margin-top: 0px;&quot;&gt;Option 4: 1 table but cron / Sync&lt;/h1&gt;" style="text;html=1;whiteSpace=wrap;overflow=hidden;rounded=0;" vertex="1" parent="1">
          <mxGeometry x="-40" y="40" width="270" height="120" as="geometry" />
        </mxCell>
        <mxCell id="mPE-RRajF-i85CnaDNLj-85" style="edgeStyle=orthogonalEdgeStyle;rounded=0;orthogonalLoop=1;jettySize=auto;html=1;exitX=0;exitY=0.75;exitDx=0;exitDy=0;" edge="1" parent="1" source="mPE-RRajF-i85CnaDNLj-73">
          <mxGeometry relative="1" as="geometry">
            <mxPoint x="320" y="204.77777777777783" as="targetPoint" />
          </mxGeometry>
        </mxCell>
        <mxCell id="mPE-RRajF-i85CnaDNLj-73" value="Ops Table" style="rounded=0;whiteSpace=wrap;html=1;" vertex="1" parent="1">
          <mxGeometry x="390" y="160" width="120" height="60" as="geometry" />
        </mxCell>
        <mxCell id="mPE-RRajF-i85CnaDNLj-74" value="Maxar API" style="ellipse;whiteSpace=wrap;html=1;aspect=fixed;" vertex="1" parent="1">
          <mxGeometry x="380" y="465" width="80" height="80" as="geometry" />
        </mxCell>
        <mxCell id="mPE-RRajF-i85CnaDNLj-75" style="edgeStyle=orthogonalEdgeStyle;rounded=0;orthogonalLoop=1;jettySize=auto;html=1;exitX=1;exitY=0.5;exitDx=0;exitDy=0;entryX=0;entryY=0.5;entryDx=0;entryDy=0;" edge="1" parent="1" source="mPE-RRajF-i85CnaDNLj-76" target="mPE-RRajF-i85CnaDNLj-73">
          <mxGeometry relative="1" as="geometry" />
        </mxCell>
        <mxCell id="mPE-RRajF-i85CnaDNLj-76" value="Ops Web App" style="rounded=0;whiteSpace=wrap;html=1;" vertex="1" parent="1">
          <mxGeometry x="200" y="160" width="120" height="60" as="geometry" />
        </mxCell>
        <mxCell id="mPE-RRajF-i85CnaDNLj-81" style="edgeStyle=orthogonalEdgeStyle;rounded=0;orthogonalLoop=1;jettySize=auto;html=1;exitX=0;exitY=0.5;exitDx=0;exitDy=0;entryX=0.569;entryY=0.95;entryDx=0;entryDy=0;entryPerimeter=0;" edge="1" parent="1" source="mPE-RRajF-i85CnaDNLj-74" target="mPE-RRajF-i85CnaDNLj-76">
          <mxGeometry relative="1" as="geometry" />
        </mxCell>
        <mxCell id="mPE-RRajF-i85CnaDNLj-82" value="MANUAL INSERT" style="rounded=0;whiteSpace=wrap;html=1;" vertex="1" parent="1">
          <mxGeometry x="600" y="430" width="120" height="60" as="geometry" />
        </mxCell>
        <mxCell id="mPE-RRajF-i85CnaDNLj-83" style="edgeStyle=orthogonalEdgeStyle;rounded=0;orthogonalLoop=1;jettySize=auto;html=1;exitX=0;exitY=0;exitDx=0;exitDy=0;entryX=0.883;entryY=1.043;entryDx=0;entryDy=0;entryPerimeter=0;" edge="1" parent="1" source="mPE-RRajF-i85CnaDNLj-82" target="mPE-RRajF-i85CnaDNLj-73">
          <mxGeometry relative="1" as="geometry" />
        </mxCell>
        <mxCell id="mPE-RRajF-i85CnaDNLj-84" style="edgeStyle=orthogonalEdgeStyle;rounded=0;orthogonalLoop=1;jettySize=auto;html=1;exitX=1;exitY=1;exitDx=0;exitDy=0;entryX=0.422;entryY=0.053;entryDx=0;entryDy=0;entryPerimeter=0;" edge="1" parent="1" source="mPE-RRajF-i85CnaDNLj-76" target="mPE-RRajF-i85CnaDNLj-74">
          <mxGeometry relative="1" as="geometry" />
        </mxCell>
      </root>
    </mxGraphModel>
  </diagram>
</mxfile>
